<svg width="1839" height="512" viewBox="0 0 1839 512" fill="none" xmlns="http://www.w3.org/2000/svg">
<path d="M976.636 407V360.455H992.364C996 360.455 998.985 361.076 1001.32 362.318C1003.65 363.545 1005.38 365.235 1006.5 367.386C1007.62 369.538 1008.18 371.985 1008.18 374.727C1008.18 377.47 1007.62 379.902 1006.5 382.023C1005.38 384.144 1003.66 385.811 1001.34 387.023C999.023 388.22 996.061 388.818 992.455 388.818H979.727V383.727H992.273C994.758 383.727 996.758 383.364 998.273 382.636C999.803 381.909 1000.91 380.879 1001.59 379.545C1002.29 378.197 1002.64 376.591 1002.64 374.727C1002.64 372.864 1002.29 371.235 1001.59 369.841C1000.89 368.447 999.78 367.371 998.25 366.614C996.72 365.841 994.697 365.455 992.182 365.455H982.273V407H976.636ZM998.545 386.091L1010 407H1003.45L992.182 386.091H998.545ZM1031.11 407.727C1027.74 407.727 1024.84 406.985 1022.4 405.5C1019.98 404 1018.11 401.909 1016.79 399.227C1015.49 396.53 1014.84 393.394 1014.84 389.818C1014.84 386.242 1015.49 383.091 1016.79 380.364C1018.11 377.621 1019.94 375.485 1022.29 373.955C1024.65 372.409 1027.41 371.636 1030.56 371.636C1032.38 371.636 1034.18 371.939 1035.95 372.545C1037.72 373.152 1039.34 374.136 1040.79 375.5C1042.24 376.848 1043.4 378.636 1044.27 380.864C1045.13 383.091 1045.56 385.833 1045.56 389.091V391.364H1018.65V386.727H1040.11C1040.11 384.758 1039.71 383 1038.93 381.455C1038.15 379.909 1037.05 378.689 1035.61 377.795C1034.18 376.902 1032.5 376.455 1030.56 376.455C1028.43 376.455 1026.58 376.985 1025.02 378.045C1023.47 379.091 1022.28 380.455 1021.45 382.136C1020.62 383.818 1020.2 385.621 1020.2 387.545V390.636C1020.2 393.273 1020.65 395.508 1021.56 397.341C1022.49 399.159 1023.77 400.545 1025.4 401.5C1027.04 402.439 1028.94 402.909 1031.11 402.909C1032.52 402.909 1033.79 402.712 1034.93 402.318C1036.08 401.909 1037.07 401.303 1037.9 400.5C1038.74 399.682 1039.38 398.667 1039.84 397.455L1045.02 398.909C1044.47 400.667 1043.55 402.212 1042.27 403.545C1040.98 404.864 1039.39 405.894 1037.49 406.636C1035.6 407.364 1033.47 407.727 1031.11 407.727ZM1078.45 379.909L1073.63 381.273C1073.33 380.47 1072.88 379.689 1072.29 378.932C1071.71 378.159 1070.93 377.523 1069.93 377.023C1068.93 376.523 1067.65 376.273 1066.09 376.273C1063.95 376.273 1062.17 376.765 1060.74 377.75C1059.34 378.72 1058.63 379.955 1058.63 381.455C1058.63 382.788 1059.12 383.841 1060.09 384.614C1061.05 385.386 1062.57 386.03 1064.63 386.545L1069.81 387.818C1072.93 388.576 1075.26 389.735 1076.79 391.295C1078.32 392.841 1079.09 394.833 1079.09 397.273C1079.09 399.273 1078.51 401.061 1077.36 402.636C1076.22 404.212 1074.63 405.455 1072.59 406.364C1070.54 407.273 1068.16 407.727 1065.45 407.727C1061.89 407.727 1058.94 406.955 1056.61 405.409C1054.27 403.864 1052.8 401.606 1052.18 398.636L1057.27 397.364C1057.75 399.242 1058.67 400.652 1060.02 401.591C1061.38 402.53 1063.16 403 1065.36 403C1067.86 403 1069.84 402.47 1071.31 401.409C1072.8 400.333 1073.54 399.045 1073.54 397.545C1073.54 396.333 1073.12 395.318 1072.27 394.5C1071.42 393.667 1070.12 393.045 1068.36 392.636L1062.54 391.273C1059.34 390.515 1056.99 389.341 1055.49 387.75C1054.01 386.144 1053.27 384.136 1053.27 381.727C1053.27 379.758 1053.82 378.015 1054.93 376.5C1056.05 374.985 1057.57 373.795 1059.49 372.932C1061.43 372.068 1063.63 371.636 1066.09 371.636C1069.54 371.636 1072.25 372.394 1074.22 373.909C1076.21 375.424 1077.62 377.424 1078.45 379.909ZM1101.8 407.727C1098.43 407.727 1095.53 406.985 1093.09 405.5C1090.67 404 1088.8 401.909 1087.48 399.227C1086.17 396.53 1085.52 393.394 1085.52 389.818C1085.52 386.242 1086.17 383.091 1087.48 380.364C1088.8 377.621 1090.63 375.485 1092.98 373.955C1095.34 372.409 1098.1 371.636 1101.25 371.636C1103.07 371.636 1104.86 371.939 1106.64 372.545C1108.41 373.152 1110.02 374.136 1111.48 375.5C1112.93 376.848 1114.09 378.636 1114.95 380.864C1115.82 383.091 1116.25 385.833 1116.25 389.091V391.364H1089.34V386.727H1110.8C1110.8 384.758 1110.4 383 1109.61 381.455C1108.84 379.909 1107.73 378.689 1106.3 377.795C1104.87 376.902 1103.19 376.455 1101.25 376.455C1099.11 376.455 1097.27 376.985 1095.7 378.045C1094.16 379.091 1092.97 380.455 1092.14 382.136C1091.3 383.818 1090.89 385.621 1090.89 387.545V390.636C1090.89 393.273 1091.34 395.508 1092.25 397.341C1093.17 399.159 1094.45 400.545 1096.09 401.5C1097.73 402.439 1099.63 402.909 1101.8 402.909C1103.2 402.909 1104.48 402.712 1105.61 402.318C1106.77 401.909 1107.76 401.303 1108.59 400.5C1109.42 399.682 1110.07 398.667 1110.52 397.455L1115.7 398.909C1115.16 400.667 1114.24 402.212 1112.95 403.545C1111.67 404.864 1110.08 405.894 1108.18 406.636C1106.29 407.364 1104.16 407.727 1101.8 407.727ZM1124.41 407V372.091H1129.59V377.364H1129.95C1130.59 375.636 1131.74 374.235 1133.41 373.159C1135.08 372.083 1136.95 371.545 1139.05 371.545C1139.44 371.545 1139.93 371.553 1140.52 371.568C1141.11 371.583 1141.56 371.606 1141.86 371.636V377.091C1141.68 377.045 1141.27 376.977 1140.61 376.886C1139.98 376.78 1139.3 376.727 1138.59 376.727C1136.89 376.727 1135.38 377.083 1134.05 377.795C1132.73 378.492 1131.68 379.462 1130.91 380.705C1130.15 381.932 1129.77 383.333 1129.77 384.909V407H1124.41ZM1177.83 372.091L1164.92 407H1159.47L1146.56 372.091H1152.38L1162.01 399.909H1162.38L1172.01 372.091H1177.83ZM1198.3 407.727C1194.93 407.727 1192.03 406.985 1189.59 405.5C1187.17 404 1185.3 401.909 1183.98 399.227C1182.67 396.53 1182.02 393.394 1182.02 389.818C1182.02 386.242 1182.67 383.091 1183.98 380.364C1185.3 377.621 1187.13 375.485 1189.48 373.955C1191.84 372.409 1194.6 371.636 1197.75 371.636C1199.57 371.636 1201.36 371.939 1203.14 372.545C1204.91 373.152 1206.52 374.136 1207.98 375.5C1209.43 376.848 1210.59 378.636 1211.45 380.864C1212.32 383.091 1212.75 385.833 1212.75 389.091V391.364H1185.84V386.727H1207.3C1207.3 384.758 1206.9 383 1206.11 381.455C1205.34 379.909 1204.23 378.689 1202.8 377.795C1201.37 376.902 1199.69 376.455 1197.75 376.455C1195.61 376.455 1193.77 376.985 1192.2 378.045C1190.66 379.091 1189.47 380.455 1188.64 382.136C1187.8 383.818 1187.39 385.621 1187.39 387.545V390.636C1187.39 393.273 1187.84 395.508 1188.75 397.341C1189.67 399.159 1190.95 400.545 1192.59 401.5C1194.23 402.439 1196.13 402.909 1198.3 402.909C1199.7 402.909 1200.98 402.712 1202.11 402.318C1203.27 401.909 1204.26 401.303 1205.09 400.5C1205.92 399.682 1206.57 398.667 1207.02 397.455L1212.2 398.909C1211.66 400.667 1210.74 402.212 1209.45 403.545C1208.17 404.864 1206.58 405.894 1204.68 406.636C1202.79 407.364 1200.66 407.727 1198.3 407.727ZM1254.45 372.091V376.636H1235.64V372.091H1254.45ZM1241.27 407V367.273C1241.27 365.273 1241.74 363.606 1242.68 362.273C1243.62 360.939 1244.84 359.939 1246.34 359.273C1247.84 358.606 1249.42 358.273 1251.09 358.273C1252.41 358.273 1253.48 358.379 1254.32 358.591C1255.15 358.803 1255.77 359 1256.18 359.182L1254.64 363.818C1254.36 363.727 1253.98 363.614 1253.5 363.477C1253.03 363.341 1252.41 363.273 1251.64 363.273C1249.86 363.273 1248.58 363.72 1247.8 364.614C1247.02 365.508 1246.64 366.818 1246.64 368.545V407H1241.27ZM1271.24 407.818C1269.03 407.818 1267.02 407.402 1265.22 406.568C1263.42 405.72 1261.99 404.5 1260.93 402.909C1259.87 401.303 1259.34 399.364 1259.34 397.091C1259.34 395.091 1259.73 393.47 1260.52 392.227C1261.3 390.97 1262.36 389.985 1263.68 389.273C1264.99 388.561 1266.45 388.03 1268.04 387.682C1269.65 387.318 1271.26 387.03 1272.88 386.818C1275 386.545 1276.72 386.341 1278.04 386.205C1279.37 386.053 1280.34 385.803 1280.95 385.455C1281.57 385.106 1281.88 384.5 1281.88 383.636V383.455C1281.88 381.212 1281.27 379.47 1280.04 378.227C1278.83 376.985 1276.99 376.364 1274.52 376.364C1271.96 376.364 1269.95 376.924 1268.49 378.045C1267.04 379.167 1266.02 380.364 1265.43 381.636L1260.34 379.818C1261.24 377.697 1262.46 376.045 1263.97 374.864C1265.5 373.667 1267.17 372.833 1268.97 372.364C1270.79 371.879 1272.58 371.636 1274.34 371.636C1275.46 371.636 1276.74 371.773 1278.2 372.045C1279.67 372.303 1281.09 372.841 1282.45 373.659C1283.83 374.477 1284.97 375.712 1285.88 377.364C1286.79 379.015 1287.24 381.227 1287.24 384V407H1281.88V402.273H1281.61C1281.24 403.03 1280.64 403.841 1279.79 404.705C1278.94 405.568 1277.81 406.303 1276.4 406.909C1274.99 407.515 1273.27 407.818 1271.24 407.818ZM1272.06 403C1274.18 403 1275.97 402.583 1277.43 401.75C1278.9 400.917 1280 399.841 1280.74 398.523C1281.5 397.205 1281.88 395.818 1281.88 394.364V389.455C1281.65 389.727 1281.15 389.977 1280.38 390.205C1279.62 390.417 1278.74 390.606 1277.74 390.773C1276.76 390.924 1275.8 391.061 1274.86 391.182C1273.93 391.288 1273.18 391.379 1272.61 391.455C1271.21 391.636 1269.91 391.932 1268.7 392.341C1267.5 392.735 1266.53 393.333 1265.79 394.136C1265.06 394.924 1264.7 396 1264.7 397.364C1264.7 399.227 1265.39 400.636 1266.77 401.591C1268.16 402.53 1269.93 403 1272.06 403ZM1272.24 367.364L1277.79 356.818H1284.06L1276.97 367.364H1272.24ZM1311.22 407.727C1307.94 407.727 1305.13 406.955 1302.76 405.409C1300.4 403.864 1298.58 401.735 1297.31 399.023C1296.03 396.311 1295.4 393.212 1295.4 389.727C1295.4 386.182 1296.05 383.053 1297.35 380.341C1298.67 377.614 1300.5 375.485 1302.85 373.955C1305.22 372.409 1307.97 371.636 1311.12 371.636C1313.58 371.636 1315.79 372.091 1317.76 373C1319.73 373.909 1321.34 375.182 1322.6 376.818C1323.86 378.455 1324.64 380.364 1324.94 382.545H1319.58C1319.17 380.955 1318.26 379.545 1316.85 378.318C1315.46 377.076 1313.58 376.455 1311.22 376.455C1309.13 376.455 1307.29 377 1305.72 378.091C1304.16 379.167 1302.94 380.689 1302.06 382.659C1301.19 384.614 1300.76 386.909 1300.76 389.545C1300.76 392.242 1301.19 394.591 1302.03 396.591C1302.9 398.591 1304.11 400.144 1305.67 401.25C1307.25 402.356 1309.09 402.909 1311.22 402.909C1312.61 402.909 1313.88 402.667 1315.01 402.182C1316.15 401.697 1317.11 401 1317.9 400.091C1318.69 399.182 1319.25 398.091 1319.58 396.818H1324.94C1324.64 398.879 1323.89 400.735 1322.69 402.386C1321.51 404.023 1319.94 405.326 1317.99 406.295C1316.05 407.25 1313.79 407.727 1311.22 407.727ZM1332.78 407V372.091H1338.15V407H1332.78ZM1335.51 366.273C1334.47 366.273 1333.56 365.917 1332.81 365.205C1332.06 364.492 1331.69 363.636 1331.69 362.636C1331.69 361.636 1332.06 360.78 1332.81 360.068C1333.56 359.356 1334.47 359 1335.51 359C1336.56 359 1337.45 359.356 1338.19 360.068C1338.95 360.78 1339.33 361.636 1339.33 362.636C1339.33 363.636 1338.95 364.492 1338.19 365.205C1337.45 365.917 1336.56 366.273 1335.51 366.273ZM1353.34 360.455V407H1347.97V360.455H1353.34ZM1371.16 400.636L1370.8 403.091C1370.54 404.818 1370.14 406.667 1369.61 408.636C1369.1 410.606 1368.56 412.462 1368 414.205C1367.44 415.947 1366.98 417.333 1366.61 418.364H1362.52C1362.72 417.394 1362.98 416.114 1363.3 414.523C1363.61 412.932 1363.93 411.152 1364.25 409.182C1364.58 407.227 1364.86 405.227 1365.07 403.182L1365.34 400.636H1371.16ZM1409.37 407.818C1407.16 407.818 1405.15 407.402 1403.35 406.568C1401.54 405.72 1400.11 404.5 1399.05 402.909C1397.99 401.303 1397.46 399.364 1397.46 397.091C1397.46 395.091 1397.85 393.47 1398.64 392.227C1399.43 390.97 1400.48 389.985 1401.8 389.273C1403.12 388.561 1404.57 388.03 1406.16 387.682C1407.77 387.318 1409.38 387.03 1411.01 386.818C1413.13 386.545 1414.85 386.341 1416.16 386.205C1417.5 386.053 1418.47 385.803 1419.07 385.455C1419.7 385.106 1420.01 384.5 1420.01 383.636V383.455C1420.01 381.212 1419.39 379.47 1418.16 378.227C1416.95 376.985 1415.11 376.364 1412.64 376.364C1410.08 376.364 1408.07 376.924 1406.62 378.045C1405.16 379.167 1404.14 380.364 1403.55 381.636L1398.46 379.818C1399.37 377.697 1400.58 376.045 1402.1 374.864C1403.63 373.667 1405.29 372.833 1407.1 372.364C1408.91 371.879 1410.7 371.636 1412.46 371.636C1413.58 371.636 1414.87 371.773 1416.32 372.045C1417.79 372.303 1419.21 372.841 1420.57 373.659C1421.95 374.477 1423.1 375.712 1424.01 377.364C1424.91 379.015 1425.37 381.227 1425.37 384V407H1420.01V402.273H1419.73C1419.37 403.03 1418.76 403.841 1417.91 404.705C1417.07 405.568 1415.94 406.303 1414.53 406.909C1413.12 407.515 1411.4 407.818 1409.37 407.818ZM1410.19 403C1412.31 403 1414.1 402.583 1415.55 401.75C1417.02 400.917 1418.13 399.841 1418.87 398.523C1419.63 397.205 1420.01 395.818 1420.01 394.364V389.455C1419.78 389.727 1419.28 389.977 1418.51 390.205C1417.75 390.417 1416.87 390.606 1415.87 390.773C1414.88 390.924 1413.92 391.061 1412.98 391.182C1412.06 391.288 1411.31 391.379 1410.73 391.455C1409.34 391.636 1408.04 391.932 1406.82 392.341C1405.63 392.735 1404.66 393.333 1403.91 394.136C1403.19 394.924 1402.82 396 1402.82 397.364C1402.82 399.227 1403.51 400.636 1404.89 401.591C1406.29 402.53 1408.05 403 1410.19 403ZM1435.16 420.091V372.091H1440.34V377.636H1440.98C1441.37 377.03 1441.92 376.258 1442.61 375.318C1443.33 374.364 1444.34 373.515 1445.66 372.773C1446.99 372.015 1448.8 371.636 1451.07 371.636C1454.01 371.636 1456.6 372.371 1458.84 373.841C1461.08 375.311 1462.83 377.394 1464.09 380.091C1465.35 382.788 1465.98 385.97 1465.98 389.636C1465.98 393.333 1465.35 396.538 1464.09 399.25C1462.83 401.947 1461.09 404.038 1458.86 405.523C1456.64 406.992 1454.07 407.727 1451.16 407.727C1448.92 407.727 1447.12 407.356 1445.77 406.614C1444.42 405.856 1443.39 405 1442.66 404.045C1441.93 403.076 1441.37 402.273 1440.98 401.636H1440.52V420.091H1435.16ZM1440.43 389.545C1440.43 392.182 1440.82 394.508 1441.59 396.523C1442.36 398.523 1443.49 400.091 1444.98 401.227C1446.46 402.348 1448.28 402.909 1450.43 402.909C1452.67 402.909 1454.55 402.318 1456.05 401.136C1457.56 399.939 1458.7 398.333 1459.45 396.318C1460.23 394.288 1460.61 392.03 1460.61 389.545C1460.61 387.091 1460.23 384.879 1459.48 382.909C1458.73 380.924 1457.61 379.356 1456.09 378.205C1454.59 377.038 1452.7 376.455 1450.43 376.455C1448.25 376.455 1446.42 377.008 1444.93 378.114C1443.45 379.205 1442.33 380.735 1441.57 382.705C1440.81 384.659 1440.43 386.939 1440.43 389.545ZM1474.16 407V372.091H1479.34V377.364H1479.7C1480.34 375.636 1481.49 374.235 1483.16 373.159C1484.83 372.083 1486.7 371.545 1488.8 371.545C1489.19 371.545 1489.68 371.553 1490.27 371.568C1490.86 371.583 1491.31 371.606 1491.61 371.636V377.091C1491.43 377.045 1491.02 376.977 1490.36 376.886C1489.73 376.78 1489.05 376.727 1488.34 376.727C1486.64 376.727 1485.13 377.083 1483.8 377.795C1482.48 378.492 1481.43 379.462 1480.66 380.705C1479.9 381.932 1479.52 383.333 1479.52 384.909V407H1474.16ZM1511.09 407.727C1507.94 407.727 1505.17 406.977 1502.8 405.477C1500.43 403.977 1498.58 401.879 1497.25 399.182C1495.93 396.485 1495.27 393.333 1495.27 389.727C1495.27 386.091 1495.93 382.917 1497.25 380.205C1498.58 377.492 1500.43 375.386 1502.8 373.886C1505.17 372.386 1507.94 371.636 1511.09 371.636C1514.24 371.636 1517 372.386 1519.36 373.886C1521.74 375.386 1523.59 377.492 1524.91 380.205C1526.24 382.917 1526.91 386.091 1526.91 389.727C1526.91 393.333 1526.24 396.485 1524.91 399.182C1523.59 401.879 1521.74 403.977 1519.36 405.477C1517 406.977 1514.24 407.727 1511.09 407.727ZM1511.09 402.909C1513.48 402.909 1515.45 402.295 1517 401.068C1518.55 399.841 1519.69 398.227 1520.43 396.227C1521.17 394.227 1521.55 392.061 1521.55 389.727C1521.55 387.394 1521.17 385.22 1520.43 383.205C1519.69 381.189 1518.55 379.561 1517 378.318C1515.45 377.076 1513.48 376.455 1511.09 376.455C1508.7 376.455 1506.73 377.076 1505.18 378.318C1503.64 379.561 1502.49 381.189 1501.75 383.205C1501.01 385.22 1500.64 387.394 1500.64 389.727C1500.64 392.061 1501.01 394.227 1501.75 396.227C1502.49 398.227 1503.64 399.841 1505.18 401.068C1506.73 402.295 1508.7 402.909 1511.09 402.909ZM1562.39 372.091L1549.48 407H1544.03L1531.12 372.091H1536.94L1546.57 399.909H1546.94L1556.57 372.091H1562.39ZM1582.86 407.727C1579.49 407.727 1576.59 406.985 1574.15 405.5C1571.73 404 1569.86 401.909 1568.54 399.227C1567.24 396.53 1566.59 393.394 1566.59 389.818C1566.59 386.242 1567.24 383.091 1568.54 380.364C1569.86 377.621 1571.69 375.485 1574.04 373.955C1576.4 372.409 1579.16 371.636 1582.31 371.636C1584.13 371.636 1585.93 371.939 1587.7 372.545C1589.47 373.152 1591.09 374.136 1592.54 375.5C1593.99 376.848 1595.15 378.636 1596.02 380.864C1596.88 383.091 1597.31 385.833 1597.31 389.091V391.364H1570.4V386.727H1591.86C1591.86 384.758 1591.46 383 1590.68 381.455C1589.9 379.909 1588.8 378.689 1587.36 377.795C1585.93 376.902 1584.25 376.455 1582.31 376.455C1580.18 376.455 1578.33 376.985 1576.77 378.045C1575.22 379.091 1574.03 380.455 1573.2 382.136C1572.37 383.818 1571.95 385.621 1571.95 387.545V390.636C1571.95 393.273 1572.4 395.508 1573.31 397.341C1574.24 399.159 1575.52 400.545 1577.15 401.5C1578.79 402.439 1580.69 402.909 1582.86 402.909C1584.27 402.909 1585.54 402.712 1586.68 402.318C1587.83 401.909 1588.82 401.303 1589.65 400.5C1590.49 399.682 1591.13 398.667 1591.59 397.455L1596.77 398.909C1596.22 400.667 1595.3 402.212 1594.02 403.545C1592.73 404.864 1591.14 405.894 1589.24 406.636C1587.35 407.364 1585.22 407.727 1582.86 407.727ZM1605.47 407V372.091H1610.84V407H1605.47ZM1608.2 366.273C1607.15 366.273 1606.25 365.917 1605.49 365.205C1604.75 364.492 1604.38 363.636 1604.38 362.636C1604.38 361.636 1604.75 360.78 1605.49 360.068C1606.25 359.356 1607.15 359 1608.2 359C1609.24 359 1610.14 359.356 1610.88 360.068C1611.64 360.78 1612.02 361.636 1612.02 362.636C1612.02 363.636 1611.64 364.492 1610.88 365.205C1610.14 365.917 1609.24 366.273 1608.2 366.273ZM1635.84 372.091V376.636H1617.75V372.091H1635.84ZM1623.02 363.727H1628.39V397C1628.39 398.515 1628.61 399.652 1629.05 400.409C1629.5 401.152 1630.08 401.652 1630.77 401.909C1631.48 402.152 1632.23 402.273 1633.02 402.273C1633.61 402.273 1634.1 402.242 1634.48 402.182C1634.86 402.106 1635.16 402.045 1635.39 402L1636.48 406.818C1636.11 406.955 1635.61 407.091 1634.95 407.227C1634.3 407.379 1633.48 407.455 1632.48 407.455C1630.96 407.455 1629.48 407.129 1628.02 406.477C1626.58 405.826 1625.39 404.833 1624.43 403.5C1623.49 402.167 1623.02 400.485 1623.02 398.455V363.727ZM1658.17 407.727C1654.81 407.727 1651.91 406.985 1649.47 405.5C1647.04 404 1645.17 401.909 1643.85 399.227C1642.55 396.53 1641.9 393.394 1641.9 389.818C1641.9 386.242 1642.55 383.091 1643.85 380.364C1645.17 377.621 1647 375.485 1649.35 373.955C1651.72 372.409 1654.47 371.636 1657.62 371.636C1659.44 371.636 1661.24 371.939 1663.01 372.545C1664.78 373.152 1666.4 374.136 1667.85 375.5C1669.31 376.848 1670.47 378.636 1671.33 380.864C1672.19 383.091 1672.62 385.833 1672.62 389.091V391.364H1645.72V386.727H1667.17C1667.17 384.758 1666.78 383 1665.99 381.455C1665.22 379.909 1664.11 378.689 1662.67 377.795C1661.25 376.902 1659.56 376.455 1657.62 376.455C1655.49 376.455 1653.64 376.985 1652.08 378.045C1650.53 379.091 1649.34 380.455 1648.51 382.136C1647.68 383.818 1647.26 385.621 1647.26 387.545V390.636C1647.26 393.273 1647.72 395.508 1648.62 397.341C1649.55 399.159 1650.83 400.545 1652.47 401.5C1654.1 402.439 1656 402.909 1658.17 402.909C1659.58 402.909 1660.85 402.712 1661.99 402.318C1663.14 401.909 1664.13 401.303 1664.97 400.5C1665.8 399.682 1666.44 398.667 1666.9 397.455L1672.08 398.909C1671.53 400.667 1670.62 402.212 1669.33 403.545C1668.04 404.864 1666.45 405.894 1664.56 406.636C1662.66 407.364 1660.53 407.727 1658.17 407.727ZM1698.78 407V372.091H1703.97V377.545H1704.42C1705.15 375.682 1706.32 374.235 1707.94 373.205C1709.56 372.159 1711.51 371.636 1713.78 371.636C1716.09 371.636 1718 372.159 1719.53 373.205C1721.08 374.235 1722.28 375.682 1723.15 377.545H1723.51C1724.41 375.742 1725.75 374.311 1727.53 373.25C1729.32 372.174 1731.47 371.636 1733.97 371.636C1737.09 371.636 1739.64 372.614 1741.62 374.568C1743.61 376.508 1744.6 379.53 1744.6 383.636V407H1739.24V383.636C1739.24 381.061 1738.53 379.22 1737.12 378.114C1735.72 377.008 1734.06 376.455 1732.15 376.455C1729.69 376.455 1727.79 377.197 1726.44 378.682C1725.09 380.152 1724.42 382.015 1724.42 384.273V407H1718.97V383.091C1718.97 381.106 1718.32 379.508 1717.03 378.295C1715.75 377.068 1714.09 376.455 1712.06 376.455C1710.66 376.455 1709.36 376.826 1708.15 377.568C1706.95 378.311 1705.98 379.341 1705.24 380.659C1704.51 381.962 1704.15 383.47 1704.15 385.182V407H1698.78ZM1764.68 407.818C1762.47 407.818 1760.46 407.402 1758.66 406.568C1756.86 405.72 1755.42 404.5 1754.36 402.909C1753.3 401.303 1752.77 399.364 1752.77 397.091C1752.77 395.091 1753.17 393.47 1753.95 392.227C1754.74 390.97 1755.8 389.985 1757.11 389.273C1758.43 388.561 1759.89 388.03 1761.48 387.682C1763.08 387.318 1764.7 387.03 1766.32 386.818C1768.44 386.545 1770.16 386.341 1771.48 386.205C1772.81 386.053 1773.78 385.803 1774.39 385.455C1775.01 385.106 1775.32 384.5 1775.32 383.636V383.455C1775.32 381.212 1774.7 379.47 1773.48 378.227C1772.27 376.985 1770.42 376.364 1767.95 376.364C1765.39 376.364 1763.39 376.924 1761.93 378.045C1760.48 379.167 1759.45 380.364 1758.86 381.636L1753.77 379.818C1754.68 377.697 1755.89 376.045 1757.41 374.864C1758.94 373.667 1760.61 372.833 1762.41 372.364C1764.23 371.879 1766.02 371.636 1767.77 371.636C1768.89 371.636 1770.18 371.773 1771.64 372.045C1773.11 372.303 1774.52 372.841 1775.89 373.659C1777.27 374.477 1778.41 375.712 1779.32 377.364C1780.23 379.015 1780.68 381.227 1780.68 384V407H1775.32V402.273H1775.05C1774.68 403.03 1774.08 403.841 1773.23 404.705C1772.38 405.568 1771.25 406.303 1769.84 406.909C1768.43 407.515 1766.71 407.818 1764.68 407.818ZM1765.5 403C1767.62 403 1769.41 402.583 1770.86 401.75C1772.33 400.917 1773.44 399.841 1774.18 398.523C1774.94 397.205 1775.32 395.818 1775.32 394.364V389.455C1775.09 389.727 1774.59 389.977 1773.82 390.205C1773.06 390.417 1772.18 390.606 1771.18 390.773C1770.2 390.924 1769.23 391.061 1768.3 391.182C1767.37 391.288 1766.62 391.379 1766.05 391.455C1764.65 391.636 1763.35 391.932 1762.14 392.341C1760.94 392.735 1759.97 393.333 1759.23 394.136C1758.5 394.924 1758.14 396 1758.14 397.364C1758.14 399.227 1758.83 400.636 1760.2 401.591C1761.6 402.53 1763.36 403 1765.5 403ZM1790.47 407V372.091H1795.84V407H1790.47ZM1793.2 366.273C1792.15 366.273 1791.25 365.917 1790.49 365.205C1789.75 364.492 1789.38 363.636 1789.38 362.636C1789.38 361.636 1789.75 360.78 1790.49 360.068C1791.25 359.356 1792.15 359 1793.2 359C1794.24 359 1795.14 359.356 1795.88 360.068C1796.64 360.78 1797.02 361.636 1797.02 362.636C1797.02 363.636 1796.64 364.492 1795.88 365.205C1795.14 365.917 1794.24 366.273 1793.2 366.273ZM1830.39 379.909L1825.57 381.273C1825.27 380.47 1824.82 379.689 1824.23 378.932C1823.65 378.159 1822.86 377.523 1821.86 377.023C1820.86 376.523 1819.58 376.273 1818.02 376.273C1815.89 376.273 1814.11 376.765 1812.68 377.75C1811.27 378.72 1810.57 379.955 1810.57 381.455C1810.57 382.788 1811.05 383.841 1812.02 384.614C1812.99 385.386 1814.51 386.03 1816.57 386.545L1821.75 387.818C1824.87 388.576 1827.2 389.735 1828.73 391.295C1830.26 392.841 1831.02 394.833 1831.02 397.273C1831.02 399.273 1830.45 401.061 1829.3 402.636C1828.16 404.212 1826.57 405.455 1824.52 406.364C1822.48 407.273 1820.1 407.727 1817.39 407.727C1813.83 407.727 1810.88 406.955 1808.55 405.409C1806.21 403.864 1804.73 401.606 1804.11 398.636L1809.2 397.364C1809.69 399.242 1810.61 400.652 1811.95 401.591C1813.32 402.53 1815.1 403 1817.3 403C1819.8 403 1821.78 402.47 1823.25 401.409C1824.73 400.333 1825.48 399.045 1825.48 397.545C1825.48 396.333 1825.05 395.318 1824.2 394.5C1823.36 393.667 1822.05 393.045 1820.3 392.636L1814.48 391.273C1811.28 390.515 1808.93 389.341 1807.43 387.75C1805.95 386.144 1805.2 384.136 1805.2 381.727C1805.2 379.758 1805.76 378.015 1806.86 376.5C1807.98 374.985 1809.51 373.795 1811.43 372.932C1813.37 372.068 1815.57 371.636 1818.02 371.636C1821.48 371.636 1824.19 372.394 1826.16 373.909C1828.14 375.424 1829.55 377.424 1830.39 379.909Z" fill="white"/>
<path d="M588.267 298.493V157.348H643.954C654.613 157.348 663.71 159.255 671.245 163.068C678.826 166.836 684.593 172.189 688.544 179.126C692.541 186.018 694.54 194.128 694.54 203.455C694.54 212.827 692.518 220.891 688.475 227.645C684.432 234.353 678.574 239.499 670.901 243.083C663.274 246.666 654.039 248.458 643.196 248.458H605.911V224.475H638.371C644.068 224.475 648.801 223.694 652.568 222.131C656.336 220.569 659.139 218.226 660.976 215.102C662.86 211.977 663.802 208.095 663.802 203.455C663.802 198.768 662.86 194.817 660.976 191.601C659.139 188.384 656.313 185.949 652.5 184.295C648.732 182.595 643.977 181.745 638.233 181.745H618.109V298.493H588.267ZM664.491 234.261L699.571 298.493H666.628L632.306 234.261H664.491ZM761.615 300.561C750.726 300.561 741.353 298.355 733.496 293.944C725.685 289.488 719.666 283.193 715.439 275.061C711.212 266.882 709.099 257.211 709.099 246.046C709.099 235.157 711.212 225.6 715.439 217.376C719.666 209.152 725.616 202.742 733.289 198.148C741.008 193.553 750.059 191.256 760.443 191.256C767.427 191.256 773.928 192.382 779.947 194.633C786.012 196.838 791.296 200.169 795.798 204.626C800.347 209.083 803.885 214.688 806.412 221.442C808.939 228.15 810.202 236.007 810.202 245.012V253.076H720.815V234.881H782.566C782.566 230.654 781.647 226.91 779.809 223.648C777.971 220.385 775.421 217.836 772.159 215.998C768.943 214.114 765.198 213.172 760.925 213.172C756.469 213.172 752.517 214.206 749.072 216.273C745.672 218.295 743.007 221.029 741.077 224.475C739.147 227.875 738.159 231.665 738.113 235.846V253.145C738.113 258.383 739.078 262.908 741.008 266.722C742.984 270.535 745.763 273.476 749.347 275.543C752.931 277.611 757.181 278.645 762.097 278.645C765.359 278.645 768.346 278.185 771.057 277.266C773.767 276.347 776.088 274.969 778.017 273.131C779.947 271.293 781.417 269.042 782.428 266.377L809.582 268.169C808.204 274.693 805.378 280.391 801.105 285.261C796.878 290.085 791.41 293.853 784.702 296.563C778.04 299.228 770.344 300.561 761.615 300.561ZM917.439 222.821L890.561 224.475C890.102 222.177 889.114 220.11 887.598 218.272C886.081 216.388 884.083 214.895 881.602 213.792C879.167 212.644 876.249 212.069 872.849 212.069C868.3 212.069 864.464 213.034 861.34 214.964C858.215 216.848 856.653 219.375 856.653 222.545C856.653 225.072 857.664 227.208 859.686 228.954C861.707 230.7 865.176 232.102 870.092 233.158L889.252 237.018C899.544 239.131 907.216 242.531 912.27 247.218C917.324 251.904 919.851 258.061 919.851 265.688C919.851 272.626 917.807 278.714 913.718 283.951C909.675 289.189 904.115 293.278 897.039 296.219C890.01 299.113 881.9 300.561 872.711 300.561C858.698 300.561 847.533 297.643 839.217 291.808C830.947 285.927 826.099 277.932 824.675 267.824L853.552 266.308C854.425 270.581 856.538 273.843 859.892 276.095C863.246 278.3 867.542 279.403 872.78 279.403C877.926 279.403 882.061 278.415 885.185 276.439C888.356 274.418 889.964 271.822 890.01 268.651C889.964 265.987 888.838 263.804 886.633 262.104C884.427 260.358 881.027 259.026 876.433 258.107L858.101 254.454C847.763 252.387 840.067 248.803 835.013 243.703C830.005 238.603 827.501 232.102 827.501 224.199C827.501 217.399 829.339 211.541 833.014 206.625C836.736 201.709 841.951 197.918 848.659 195.253C855.413 192.588 863.315 191.256 872.367 191.256C885.737 191.256 896.258 194.082 903.931 199.733C911.65 205.384 916.153 213.08 917.439 222.821ZM986.582 300.561C975.693 300.561 966.32 298.355 958.463 293.944C950.652 289.488 944.633 283.193 940.406 275.061C936.179 266.882 934.066 257.211 934.066 246.046C934.066 235.157 936.179 225.6 940.406 217.376C944.633 209.152 950.583 202.742 958.256 198.148C965.975 193.553 975.026 191.256 985.41 191.256C992.394 191.256 998.895 192.382 1004.91 194.633C1010.98 196.838 1016.26 200.169 1020.77 204.626C1025.31 209.083 1028.85 214.688 1031.38 221.442C1033.91 228.15 1035.17 236.007 1035.17 245.012V253.076H945.782V234.881H1007.53C1007.53 230.654 1006.61 226.91 1004.78 223.648C1002.94 220.385 1000.39 217.836 997.126 215.998C993.91 214.114 990.166 213.172 985.893 213.172C981.436 213.172 977.485 214.206 974.039 216.273C970.639 218.295 967.974 221.029 966.044 224.475C964.114 227.875 963.127 231.665 963.081 235.846V253.145C963.081 258.383 964.045 262.908 965.975 266.722C967.951 270.535 970.731 273.476 974.314 275.543C977.898 277.611 982.148 278.645 987.064 278.645C990.326 278.645 993.313 278.185 996.024 277.266C998.734 276.347 1001.05 274.969 1002.98 273.131C1004.91 271.293 1006.38 269.042 1007.4 266.377L1034.55 268.169C1033.17 274.693 1030.35 280.391 1026.07 285.261C1021.85 290.085 1016.38 293.853 1009.67 296.563C1003.01 299.228 995.311 300.561 986.582 300.561ZM1054.33 298.493V192.634H1082.79V211.104H1083.89C1085.82 204.534 1089.06 199.572 1093.61 196.218C1098.16 192.818 1103.4 191.118 1109.33 191.118C1110.8 191.118 1112.38 191.21 1114.08 191.394C1115.78 191.578 1117.27 191.83 1118.56 192.152V218.203C1117.18 217.79 1115.28 217.422 1112.84 217.1C1110.41 216.779 1108.18 216.618 1106.16 216.618C1101.84 216.618 1097.98 217.56 1094.58 219.444C1091.22 221.281 1088.56 223.854 1086.58 227.162C1084.65 230.471 1083.69 234.284 1083.69 238.603V298.493H1054.33ZM1235.65 192.634L1198.64 298.493H1165.56L1128.55 192.634H1159.57L1181.55 268.376H1182.65L1204.57 192.634H1235.65ZM1278.02 300.492C1271.27 300.492 1265.25 299.32 1259.96 296.977C1254.68 294.588 1250.5 291.073 1247.42 286.432C1244.39 281.746 1242.87 275.911 1242.87 268.927C1242.87 263.046 1243.95 258.107 1246.11 254.11C1248.27 250.112 1251.21 246.896 1254.93 244.461C1258.65 242.026 1262.88 240.188 1267.61 238.948C1272.39 237.707 1277.4 236.834 1282.64 236.329C1288.8 235.685 1293.76 235.088 1297.52 234.537C1301.29 233.939 1304.03 233.066 1305.73 231.918C1307.43 230.769 1308.28 229.069 1308.28 226.818V226.404C1308.28 222.04 1306.9 218.663 1304.14 216.273C1301.43 213.884 1297.57 212.69 1292.56 212.69C1287.28 212.69 1283.07 213.861 1279.95 216.204C1276.83 218.502 1274.76 221.396 1273.75 224.888L1246.59 222.683C1247.97 216.25 1250.68 210.691 1254.73 206.005C1258.77 201.272 1263.98 197.642 1270.37 195.115C1276.8 192.542 1284.25 191.256 1292.7 191.256C1298.58 191.256 1304.21 191.945 1309.59 193.324C1315.01 194.702 1319.81 196.838 1323.99 199.733C1328.22 202.628 1331.55 206.349 1333.98 210.898C1336.42 215.4 1337.64 220.799 1337.64 227.094V298.493H1309.79V283.813H1308.97C1307.27 287.122 1304.99 290.039 1302.14 292.566C1299.29 295.047 1295.87 297 1291.87 298.424C1287.88 299.803 1283.26 300.492 1278.02 300.492ZM1286.43 280.23C1290.75 280.23 1294.56 279.38 1297.87 277.68C1301.18 275.934 1303.77 273.591 1305.66 270.65C1307.54 267.71 1308.48 264.378 1308.48 260.657V249.423C1307.56 250.02 1306.3 250.572 1304.69 251.077C1303.13 251.537 1301.36 251.973 1299.39 252.387C1297.41 252.754 1295.43 253.099 1293.46 253.42C1291.48 253.696 1289.69 253.949 1288.08 254.179C1284.64 254.684 1281.63 255.488 1279.05 256.591C1276.48 257.693 1274.48 259.187 1273.06 261.07C1271.63 262.908 1270.92 265.205 1270.92 267.962C1270.92 271.959 1272.37 275.015 1275.26 277.128C1278.2 279.196 1281.93 280.23 1286.43 280.23ZM1405.88 298.493V157.348H1499.34V181.952H1435.72V215.584H1493.13V240.188H1435.72V298.493H1405.88ZM1547.72 300.492C1540.96 300.492 1534.94 299.32 1529.66 296.977C1524.38 294.588 1520.19 291.073 1517.12 286.432C1514.08 281.746 1512.57 275.911 1512.57 268.927C1512.57 263.046 1513.65 258.107 1515.81 254.11C1517.97 250.112 1520.91 246.896 1524.63 244.461C1528.35 242.026 1532.58 240.188 1537.31 238.948C1542.09 237.707 1547.1 236.834 1552.33 236.329C1558.49 235.685 1563.45 235.088 1567.22 234.537C1570.99 233.939 1573.72 233.066 1575.42 231.918C1577.12 230.769 1577.97 229.069 1577.97 226.818V226.404C1577.97 222.04 1576.59 218.663 1573.84 216.273C1571.13 213.884 1567.27 212.69 1562.26 212.69C1556.97 212.69 1552.77 213.861 1549.65 216.204C1546.52 218.502 1544.45 221.396 1543.44 224.888L1516.29 222.683C1517.67 216.25 1520.38 210.691 1524.42 206.005C1528.46 201.272 1533.68 197.642 1540.07 195.115C1546.5 192.542 1553.94 191.256 1562.4 191.256C1568.28 191.256 1573.9 191.945 1579.28 193.324C1584.7 194.702 1589.5 196.838 1593.68 199.733C1597.91 202.628 1601.24 206.349 1603.68 210.898C1606.11 215.4 1607.33 220.799 1607.33 227.094V298.493H1579.49V283.813H1578.66C1576.96 287.122 1574.69 290.039 1571.84 292.566C1568.99 295.047 1565.57 297 1561.57 298.424C1557.57 299.803 1552.95 300.492 1547.72 300.492ZM1556.12 280.23C1560.44 280.23 1564.26 279.38 1567.56 277.68C1570.87 275.934 1573.47 273.591 1575.35 270.65C1577.24 267.71 1578.18 264.378 1578.18 260.657V249.423C1577.26 250.02 1576 250.572 1574.39 251.077C1572.83 251.537 1571.06 251.973 1569.08 252.387C1567.11 252.754 1565.13 253.099 1563.15 253.42C1561.18 253.696 1559.39 253.949 1557.78 254.179C1554.33 254.684 1551.32 255.488 1548.75 256.591C1546.18 257.693 1544.18 259.187 1542.75 261.07C1541.33 262.908 1540.62 265.205 1540.62 267.962C1540.62 271.959 1542.06 275.015 1544.96 277.128C1547.9 279.196 1551.62 280.23 1556.12 280.23ZM1552.95 178.988L1567.56 147.631H1594.72L1573.7 178.988H1552.95ZM1677.94 300.561C1667.09 300.561 1657.77 298.263 1649.96 293.669C1642.19 289.028 1636.22 282.596 1632.04 274.372C1627.9 266.147 1625.84 256.683 1625.84 245.977C1625.84 235.134 1627.93 225.623 1632.11 217.445C1636.33 209.221 1642.33 202.811 1650.09 198.217C1657.86 193.576 1667.09 191.256 1677.8 191.256C1687.03 191.256 1695.12 192.933 1702.06 196.287C1709 199.641 1714.49 204.35 1718.53 210.415C1722.57 216.48 1724.8 223.602 1725.22 231.78H1697.51C1696.73 226.496 1694.66 222.246 1691.31 219.03C1688 215.768 1683.66 214.137 1678.28 214.137C1673.73 214.137 1669.76 215.377 1666.36 217.858C1663.01 220.294 1660.39 223.854 1658.5 228.541C1656.62 233.227 1655.68 238.902 1655.68 245.564C1655.68 252.318 1656.6 258.061 1658.43 262.793C1660.32 267.526 1662.96 271.132 1666.36 273.614C1669.76 276.095 1673.73 277.335 1678.28 277.335C1681.64 277.335 1684.65 276.646 1687.31 275.268C1690.02 273.889 1692.25 271.891 1694 269.272C1695.79 266.607 1696.96 263.414 1697.51 259.692H1725.22C1724.76 267.778 1722.55 274.9 1718.6 281.057C1714.69 287.168 1709.3 291.946 1702.4 295.392C1695.51 298.838 1687.36 300.561 1677.94 300.561ZM1744.01 298.493V192.634H1773.37V298.493H1744.01ZM1758.76 178.988C1754.4 178.988 1750.65 177.541 1747.53 174.647C1744.45 171.706 1742.91 168.191 1742.91 164.102C1742.91 160.059 1744.45 156.59 1747.53 153.695C1750.65 150.755 1754.4 149.285 1758.76 149.285C1763.13 149.285 1766.85 150.755 1769.93 153.695C1773.05 156.59 1774.61 160.059 1774.61 164.102C1774.61 168.191 1773.05 171.706 1769.93 174.647C1766.85 177.541 1763.13 178.988 1758.76 178.988ZM1826.25 157.348V298.493H1796.89V157.348H1826.25Z" fill="white"/>
<path fill-rule="evenodd" clip-rule="evenodd" d="M64 0C28.6538 0 0 28.6538 0 64V448C0 483.346 28.6538 512 64 512H448C483.346 512 512 483.346 512 448V64C512 28.6538 483.346 0 448 0H64ZM117.605 80.2854V431H212.818V315.237H245.771L307.347 431H410.78L339.557 300.238C357.751 291.508 372.017 279.097 382.353 263.006C393.541 245.767 399.135 224.59 399.135 199.474C399.135 174.586 393.712 153.237 382.867 135.427C372.021 117.617 356.837 103.975 337.315 94.4989C317.793 85.0233 295.017 80.2854 268.987 80.2854H117.605ZM212.818 241.258H246.383C257.571 241.258 267.104 239.888 274.981 237.148C282.973 234.294 289.08 229.784 293.304 223.619C297.643 217.455 299.812 209.406 299.812 199.474C299.812 189.427 297.643 181.264 293.304 174.985C289.08 168.592 282.973 163.911 274.981 160.943C267.104 157.86 257.571 156.319 246.383 156.319H212.818V241.258Z" fill="white"/>
</svg>
