<svg width="432" height="433" viewBox="0 0 432 433" fill="none" xmlns="http://www.w3.org/2000/svg">
<path d="M0 54.375C0 24.5516 24.1766 0.375 54 0.375H378C407.823 0.375 432 24.5516 432 54.375V378.375C432 408.198 407.823 432.375 378 432.375H54C24.1766 432.375 0 408.198 0 378.375V54.375Z" fill="url(#paint0_linear_19_6)"/>
<path d="M99.2289 364V68.0846H226.958C248.921 68.0846 268.138 72.0821 284.61 80.0772C301.081 88.0724 313.893 99.5834 323.044 114.61C332.195 129.637 336.77 147.65 336.77 168.65C336.77 189.841 332.05 207.71 322.61 222.255C313.267 236.801 300.118 247.782 283.165 255.199C266.307 262.616 246.609 266.325 224.068 266.325H147.778V203.905H207.885C217.325 203.905 225.369 202.749 232.015 200.437C238.758 198.029 243.912 194.224 247.476 189.023C251.136 183.821 252.966 177.03 252.966 168.65C252.966 160.173 251.136 153.285 247.476 147.988C243.912 142.593 238.758 138.644 232.015 136.139C225.369 133.539 217.325 132.238 207.885 132.238H179.565V364H99.2289ZM272.617 228.179L346.596 364H259.324L187.079 228.179H272.617Z" fill="white"/>
<defs>
<linearGradient id="paint0_linear_19_6" x1="216" y1="0.375" x2="216" y2="432.375" gradientUnits="userSpaceOnUse">
<stop stop-color="#FF6900"/>
<stop offset="1" stop-color="#FFC400"/>
</linearGradient>
</defs>
</svg>
