<svg width="1843" height="512" viewBox="0 0 1843 512" fill="none" xmlns="http://www.w3.org/2000/svg">
<path d="M980.636 407V360.455H996.364C1000 360.455 1002.98 361.076 1005.32 362.318C1007.65 363.545 1009.38 365.235 1010.5 367.386C1011.62 369.538 1012.18 371.985 1012.18 374.727C1012.18 377.47 1011.62 379.902 1010.5 382.023C1009.38 384.144 1007.66 385.811 1005.34 387.023C1003.02 388.22 1000.06 388.818 996.455 388.818H983.727V383.727H996.273C998.758 383.727 1000.76 383.364 1002.27 382.636C1003.8 381.909 1004.91 380.879 1005.59 379.545C1006.29 378.197 1006.64 376.591 1006.64 374.727C1006.64 372.864 1006.29 371.235 1005.59 369.841C1004.89 368.447 1003.78 367.371 1002.25 366.614C1000.72 365.841 998.697 365.455 996.182 365.455H986.273V407H980.636ZM1002.55 386.091L1014 407H1007.45L996.182 386.091H1002.55ZM1035.11 407.727C1031.74 407.727 1028.84 406.985 1026.4 405.5C1023.98 404 1022.11 401.909 1020.79 399.227C1019.49 396.53 1018.84 393.394 1018.84 389.818C1018.84 386.242 1019.49 383.091 1020.79 380.364C1022.11 377.621 1023.94 375.485 1026.29 373.955C1028.65 372.409 1031.41 371.636 1034.56 371.636C1036.38 371.636 1038.18 371.939 1039.95 372.545C1041.72 373.152 1043.34 374.136 1044.79 375.5C1046.24 376.848 1047.4 378.636 1048.27 380.864C1049.13 383.091 1049.56 385.833 1049.56 389.091V391.364H1022.65V386.727H1044.11C1044.11 384.758 1043.71 383 1042.93 381.455C1042.15 379.909 1041.05 378.689 1039.61 377.795C1038.18 376.902 1036.5 376.455 1034.56 376.455C1032.43 376.455 1030.58 376.985 1029.02 378.045C1027.47 379.091 1026.28 380.455 1025.45 382.136C1024.62 383.818 1024.2 385.621 1024.2 387.545V390.636C1024.2 393.273 1024.65 395.508 1025.56 397.341C1026.49 399.159 1027.77 400.545 1029.4 401.5C1031.04 402.439 1032.94 402.909 1035.11 402.909C1036.52 402.909 1037.79 402.712 1038.93 402.318C1040.08 401.909 1041.07 401.303 1041.9 400.5C1042.74 399.682 1043.38 398.667 1043.84 397.455L1049.02 398.909C1048.47 400.667 1047.55 402.212 1046.27 403.545C1044.98 404.864 1043.39 405.894 1041.49 406.636C1039.6 407.364 1037.47 407.727 1035.11 407.727ZM1082.45 379.909L1077.63 381.273C1077.33 380.47 1076.88 379.689 1076.29 378.932C1075.71 378.159 1074.93 377.523 1073.93 377.023C1072.93 376.523 1071.65 376.273 1070.09 376.273C1067.95 376.273 1066.17 376.765 1064.74 377.75C1063.34 378.72 1062.63 379.955 1062.63 381.455C1062.63 382.788 1063.12 383.841 1064.09 384.614C1065.05 385.386 1066.57 386.03 1068.63 386.545L1073.81 387.818C1076.93 388.576 1079.26 389.735 1080.79 391.295C1082.32 392.841 1083.09 394.833 1083.09 397.273C1083.09 399.273 1082.51 401.061 1081.36 402.636C1080.22 404.212 1078.63 405.455 1076.59 406.364C1074.54 407.273 1072.16 407.727 1069.45 407.727C1065.89 407.727 1062.94 406.955 1060.61 405.409C1058.27 403.864 1056.8 401.606 1056.18 398.636L1061.27 397.364C1061.75 399.242 1062.67 400.652 1064.02 401.591C1065.38 402.53 1067.16 403 1069.36 403C1071.86 403 1073.84 402.47 1075.31 401.409C1076.8 400.333 1077.54 399.045 1077.54 397.545C1077.54 396.333 1077.12 395.318 1076.27 394.5C1075.42 393.667 1074.12 393.045 1072.36 392.636L1066.54 391.273C1063.34 390.515 1060.99 389.341 1059.49 387.75C1058.01 386.144 1057.27 384.136 1057.27 381.727C1057.27 379.758 1057.82 378.015 1058.93 376.5C1060.05 374.985 1061.57 373.795 1063.49 372.932C1065.43 372.068 1067.63 371.636 1070.09 371.636C1073.54 371.636 1076.25 372.394 1078.22 373.909C1080.21 375.424 1081.62 377.424 1082.45 379.909ZM1105.8 407.727C1102.43 407.727 1099.53 406.985 1097.09 405.5C1094.67 404 1092.8 401.909 1091.48 399.227C1090.17 396.53 1089.52 393.394 1089.52 389.818C1089.52 386.242 1090.17 383.091 1091.48 380.364C1092.8 377.621 1094.63 375.485 1096.98 373.955C1099.34 372.409 1102.1 371.636 1105.25 371.636C1107.07 371.636 1108.86 371.939 1110.64 372.545C1112.41 373.152 1114.02 374.136 1115.48 375.5C1116.93 376.848 1118.09 378.636 1118.95 380.864C1119.82 383.091 1120.25 385.833 1120.25 389.091V391.364H1093.34V386.727H1114.8C1114.8 384.758 1114.4 383 1113.61 381.455C1112.84 379.909 1111.73 378.689 1110.3 377.795C1108.87 376.902 1107.19 376.455 1105.25 376.455C1103.11 376.455 1101.27 376.985 1099.7 378.045C1098.16 379.091 1096.97 380.455 1096.14 382.136C1095.3 383.818 1094.89 385.621 1094.89 387.545V390.636C1094.89 393.273 1095.34 395.508 1096.25 397.341C1097.17 399.159 1098.45 400.545 1100.09 401.5C1101.73 402.439 1103.63 402.909 1105.8 402.909C1107.2 402.909 1108.48 402.712 1109.61 402.318C1110.77 401.909 1111.76 401.303 1112.59 400.5C1113.42 399.682 1114.07 398.667 1114.52 397.455L1119.7 398.909C1119.16 400.667 1118.24 402.212 1116.95 403.545C1115.67 404.864 1114.08 405.894 1112.18 406.636C1110.29 407.364 1108.16 407.727 1105.8 407.727ZM1128.41 407V372.091H1133.59V377.364H1133.95C1134.59 375.636 1135.74 374.235 1137.41 373.159C1139.08 372.083 1140.95 371.545 1143.05 371.545C1143.44 371.545 1143.93 371.553 1144.52 371.568C1145.11 371.583 1145.56 371.606 1145.86 371.636V377.091C1145.68 377.045 1145.27 376.977 1144.61 376.886C1143.98 376.78 1143.3 376.727 1142.59 376.727C1140.89 376.727 1139.38 377.083 1138.05 377.795C1136.73 378.492 1135.68 379.462 1134.91 380.705C1134.15 381.932 1133.77 383.333 1133.77 384.909V407H1128.41ZM1181.83 372.091L1168.92 407H1163.47L1150.56 372.091H1156.38L1166.01 399.909H1166.38L1176.01 372.091H1181.83ZM1202.3 407.727C1198.93 407.727 1196.03 406.985 1193.59 405.5C1191.17 404 1189.3 401.909 1187.98 399.227C1186.67 396.53 1186.02 393.394 1186.02 389.818C1186.02 386.242 1186.67 383.091 1187.98 380.364C1189.3 377.621 1191.13 375.485 1193.48 373.955C1195.84 372.409 1198.6 371.636 1201.75 371.636C1203.57 371.636 1205.36 371.939 1207.14 372.545C1208.91 373.152 1210.52 374.136 1211.98 375.5C1213.43 376.848 1214.59 378.636 1215.45 380.864C1216.32 383.091 1216.75 385.833 1216.75 389.091V391.364H1189.84V386.727H1211.3C1211.3 384.758 1210.9 383 1210.11 381.455C1209.34 379.909 1208.23 378.689 1206.8 377.795C1205.37 376.902 1203.69 376.455 1201.75 376.455C1199.61 376.455 1197.77 376.985 1196.2 378.045C1194.66 379.091 1193.47 380.455 1192.64 382.136C1191.8 383.818 1191.39 385.621 1191.39 387.545V390.636C1191.39 393.273 1191.84 395.508 1192.75 397.341C1193.67 399.159 1194.95 400.545 1196.59 401.5C1198.23 402.439 1200.13 402.909 1202.3 402.909C1203.7 402.909 1204.98 402.712 1206.11 402.318C1207.27 401.909 1208.26 401.303 1209.09 400.5C1209.92 399.682 1210.57 398.667 1211.02 397.455L1216.2 398.909C1215.66 400.667 1214.74 402.212 1213.45 403.545C1212.17 404.864 1210.58 405.894 1208.68 406.636C1206.79 407.364 1204.66 407.727 1202.3 407.727ZM1258.45 372.091V376.636H1239.64V372.091H1258.45ZM1245.27 407V367.273C1245.27 365.273 1245.74 363.606 1246.68 362.273C1247.62 360.939 1248.84 359.939 1250.34 359.273C1251.84 358.606 1253.42 358.273 1255.09 358.273C1256.41 358.273 1257.48 358.379 1258.32 358.591C1259.15 358.803 1259.77 359 1260.18 359.182L1258.64 363.818C1258.36 363.727 1257.98 363.614 1257.5 363.477C1257.03 363.341 1256.41 363.273 1255.64 363.273C1253.86 363.273 1252.58 363.72 1251.8 364.614C1251.02 365.508 1250.64 366.818 1250.64 368.545V407H1245.27ZM1275.24 407.818C1273.03 407.818 1271.02 407.402 1269.22 406.568C1267.42 405.72 1265.99 404.5 1264.93 402.909C1263.87 401.303 1263.34 399.364 1263.34 397.091C1263.34 395.091 1263.73 393.47 1264.52 392.227C1265.3 390.97 1266.36 389.985 1267.68 389.273C1268.99 388.561 1270.45 388.03 1272.04 387.682C1273.65 387.318 1275.26 387.03 1276.88 386.818C1279 386.545 1280.72 386.341 1282.04 386.205C1283.37 386.053 1284.34 385.803 1284.95 385.455C1285.57 385.106 1285.88 384.5 1285.88 383.636V383.455C1285.88 381.212 1285.27 379.47 1284.04 378.227C1282.83 376.985 1280.99 376.364 1278.52 376.364C1275.96 376.364 1273.95 376.924 1272.49 378.045C1271.04 379.167 1270.02 380.364 1269.43 381.636L1264.34 379.818C1265.24 377.697 1266.46 376.045 1267.97 374.864C1269.5 373.667 1271.17 372.833 1272.97 372.364C1274.79 371.879 1276.58 371.636 1278.34 371.636C1279.46 371.636 1280.74 371.773 1282.2 372.045C1283.67 372.303 1285.09 372.841 1286.45 373.659C1287.83 374.477 1288.97 375.712 1289.88 377.364C1290.79 379.015 1291.24 381.227 1291.24 384V407H1285.88V402.273H1285.61C1285.24 403.03 1284.64 403.841 1283.79 404.705C1282.94 405.568 1281.81 406.303 1280.4 406.909C1278.99 407.515 1277.27 407.818 1275.24 407.818ZM1276.06 403C1278.18 403 1279.97 402.583 1281.43 401.75C1282.9 400.917 1284 399.841 1284.74 398.523C1285.5 397.205 1285.88 395.818 1285.88 394.364V389.455C1285.65 389.727 1285.15 389.977 1284.38 390.205C1283.62 390.417 1282.74 390.606 1281.74 390.773C1280.76 390.924 1279.8 391.061 1278.86 391.182C1277.93 391.288 1277.18 391.379 1276.61 391.455C1275.21 391.636 1273.91 391.932 1272.7 392.341C1271.5 392.735 1270.53 393.333 1269.79 394.136C1269.06 394.924 1268.7 396 1268.7 397.364C1268.7 399.227 1269.39 400.636 1270.77 401.591C1272.16 402.53 1273.93 403 1276.06 403ZM1276.24 367.364L1281.79 356.818H1288.06L1280.97 367.364H1276.24ZM1315.22 407.727C1311.94 407.727 1309.13 406.955 1306.76 405.409C1304.4 403.864 1302.58 401.735 1301.31 399.023C1300.03 396.311 1299.4 393.212 1299.4 389.727C1299.4 386.182 1300.05 383.053 1301.35 380.341C1302.67 377.614 1304.5 375.485 1306.85 373.955C1309.22 372.409 1311.97 371.636 1315.12 371.636C1317.58 371.636 1319.79 372.091 1321.76 373C1323.73 373.909 1325.34 375.182 1326.6 376.818C1327.86 378.455 1328.64 380.364 1328.94 382.545H1323.58C1323.17 380.955 1322.26 379.545 1320.85 378.318C1319.46 377.076 1317.58 376.455 1315.22 376.455C1313.13 376.455 1311.29 377 1309.72 378.091C1308.16 379.167 1306.94 380.689 1306.06 382.659C1305.19 384.614 1304.76 386.909 1304.76 389.545C1304.76 392.242 1305.19 394.591 1306.03 396.591C1306.9 398.591 1308.11 400.144 1309.67 401.25C1311.25 402.356 1313.09 402.909 1315.22 402.909C1316.61 402.909 1317.88 402.667 1319.01 402.182C1320.15 401.697 1321.11 401 1321.9 400.091C1322.69 399.182 1323.25 398.091 1323.58 396.818H1328.94C1328.64 398.879 1327.89 400.735 1326.69 402.386C1325.51 404.023 1323.94 405.326 1321.99 406.295C1320.05 407.25 1317.79 407.727 1315.22 407.727ZM1336.78 407V372.091H1342.15V407H1336.78ZM1339.51 366.273C1338.47 366.273 1337.56 365.917 1336.81 365.205C1336.06 364.492 1335.69 363.636 1335.69 362.636C1335.69 361.636 1336.06 360.78 1336.81 360.068C1337.56 359.356 1338.47 359 1339.51 359C1340.56 359 1341.45 359.356 1342.19 360.068C1342.95 360.78 1343.33 361.636 1343.33 362.636C1343.33 363.636 1342.95 364.492 1342.19 365.205C1341.45 365.917 1340.56 366.273 1339.51 366.273ZM1357.34 360.455V407H1351.97V360.455H1357.34ZM1375.16 400.636L1374.8 403.091C1374.54 404.818 1374.14 406.667 1373.61 408.636C1373.1 410.606 1372.56 412.462 1372 414.205C1371.44 415.947 1370.98 417.333 1370.61 418.364H1366.52C1366.72 417.394 1366.98 416.114 1367.3 414.523C1367.61 412.932 1367.93 411.152 1368.25 409.182C1368.58 407.227 1368.86 405.227 1369.07 403.182L1369.34 400.636H1375.16ZM1413.37 407.818C1411.16 407.818 1409.15 407.402 1407.35 406.568C1405.54 405.72 1404.11 404.5 1403.05 402.909C1401.99 401.303 1401.46 399.364 1401.46 397.091C1401.46 395.091 1401.85 393.47 1402.64 392.227C1403.43 390.97 1404.48 389.985 1405.8 389.273C1407.12 388.561 1408.57 388.03 1410.16 387.682C1411.77 387.318 1413.38 387.03 1415.01 386.818C1417.13 386.545 1418.85 386.341 1420.16 386.205C1421.5 386.053 1422.47 385.803 1423.07 385.455C1423.7 385.106 1424.01 384.5 1424.01 383.636V383.455C1424.01 381.212 1423.39 379.47 1422.16 378.227C1420.95 376.985 1419.11 376.364 1416.64 376.364C1414.08 376.364 1412.07 376.924 1410.62 378.045C1409.16 379.167 1408.14 380.364 1407.55 381.636L1402.46 379.818C1403.37 377.697 1404.58 376.045 1406.1 374.864C1407.63 373.667 1409.29 372.833 1411.1 372.364C1412.91 371.879 1414.7 371.636 1416.46 371.636C1417.58 371.636 1418.87 371.773 1420.32 372.045C1421.79 372.303 1423.21 372.841 1424.57 373.659C1425.95 374.477 1427.1 375.712 1428.01 377.364C1428.91 379.015 1429.37 381.227 1429.37 384V407H1424.01V402.273H1423.73C1423.37 403.03 1422.76 403.841 1421.91 404.705C1421.07 405.568 1419.94 406.303 1418.53 406.909C1417.12 407.515 1415.4 407.818 1413.37 407.818ZM1414.19 403C1416.31 403 1418.1 402.583 1419.55 401.75C1421.02 400.917 1422.13 399.841 1422.87 398.523C1423.63 397.205 1424.01 395.818 1424.01 394.364V389.455C1423.78 389.727 1423.28 389.977 1422.51 390.205C1421.75 390.417 1420.87 390.606 1419.87 390.773C1418.88 390.924 1417.92 391.061 1416.98 391.182C1416.06 391.288 1415.31 391.379 1414.73 391.455C1413.34 391.636 1412.04 391.932 1410.82 392.341C1409.63 392.735 1408.66 393.333 1407.91 394.136C1407.19 394.924 1406.82 396 1406.82 397.364C1406.82 399.227 1407.51 400.636 1408.89 401.591C1410.29 402.53 1412.05 403 1414.19 403ZM1439.16 420.091V372.091H1444.34V377.636H1444.98C1445.37 377.03 1445.92 376.258 1446.61 375.318C1447.33 374.364 1448.34 373.515 1449.66 372.773C1450.99 372.015 1452.8 371.636 1455.07 371.636C1458.01 371.636 1460.6 372.371 1462.84 373.841C1465.08 375.311 1466.83 377.394 1468.09 380.091C1469.35 382.788 1469.98 385.97 1469.98 389.636C1469.98 393.333 1469.35 396.538 1468.09 399.25C1466.83 401.947 1465.09 404.038 1462.86 405.523C1460.64 406.992 1458.07 407.727 1455.16 407.727C1452.92 407.727 1451.12 407.356 1449.77 406.614C1448.42 405.856 1447.39 405 1446.66 404.045C1445.93 403.076 1445.37 402.273 1444.98 401.636H1444.52V420.091H1439.16ZM1444.43 389.545C1444.43 392.182 1444.82 394.508 1445.59 396.523C1446.36 398.523 1447.49 400.091 1448.98 401.227C1450.46 402.348 1452.28 402.909 1454.43 402.909C1456.67 402.909 1458.55 402.318 1460.05 401.136C1461.56 399.939 1462.7 398.333 1463.45 396.318C1464.23 394.288 1464.61 392.03 1464.61 389.545C1464.61 387.091 1464.23 384.879 1463.48 382.909C1462.73 380.924 1461.61 379.356 1460.09 378.205C1458.59 377.038 1456.7 376.455 1454.43 376.455C1452.25 376.455 1450.42 377.008 1448.93 378.114C1447.45 379.205 1446.33 380.735 1445.57 382.705C1444.81 384.659 1444.43 386.939 1444.43 389.545ZM1478.16 407V372.091H1483.34V377.364H1483.7C1484.34 375.636 1485.49 374.235 1487.16 373.159C1488.83 372.083 1490.7 371.545 1492.8 371.545C1493.19 371.545 1493.68 371.553 1494.27 371.568C1494.86 371.583 1495.31 371.606 1495.61 371.636V377.091C1495.43 377.045 1495.02 376.977 1494.36 376.886C1493.73 376.78 1493.05 376.727 1492.34 376.727C1490.64 376.727 1489.13 377.083 1487.8 377.795C1486.48 378.492 1485.43 379.462 1484.66 380.705C1483.9 381.932 1483.52 383.333 1483.52 384.909V407H1478.16ZM1515.09 407.727C1511.94 407.727 1509.17 406.977 1506.8 405.477C1504.43 403.977 1502.58 401.879 1501.25 399.182C1499.93 396.485 1499.27 393.333 1499.27 389.727C1499.27 386.091 1499.93 382.917 1501.25 380.205C1502.58 377.492 1504.43 375.386 1506.8 373.886C1509.17 372.386 1511.94 371.636 1515.09 371.636C1518.24 371.636 1521 372.386 1523.36 373.886C1525.74 375.386 1527.59 377.492 1528.91 380.205C1530.24 382.917 1530.91 386.091 1530.91 389.727C1530.91 393.333 1530.24 396.485 1528.91 399.182C1527.59 401.879 1525.74 403.977 1523.36 405.477C1521 406.977 1518.24 407.727 1515.09 407.727ZM1515.09 402.909C1517.48 402.909 1519.45 402.295 1521 401.068C1522.55 399.841 1523.69 398.227 1524.43 396.227C1525.17 394.227 1525.55 392.061 1525.55 389.727C1525.55 387.394 1525.17 385.22 1524.43 383.205C1523.69 381.189 1522.55 379.561 1521 378.318C1519.45 377.076 1517.48 376.455 1515.09 376.455C1512.7 376.455 1510.73 377.076 1509.18 378.318C1507.64 379.561 1506.49 381.189 1505.75 383.205C1505.01 385.22 1504.64 387.394 1504.64 389.727C1504.64 392.061 1505.01 394.227 1505.75 396.227C1506.49 398.227 1507.64 399.841 1509.18 401.068C1510.73 402.295 1512.7 402.909 1515.09 402.909ZM1566.39 372.091L1553.48 407H1548.03L1535.12 372.091H1540.94L1550.57 399.909H1550.94L1560.57 372.091H1566.39ZM1586.86 407.727C1583.49 407.727 1580.59 406.985 1578.15 405.5C1575.73 404 1573.86 401.909 1572.54 399.227C1571.24 396.53 1570.59 393.394 1570.59 389.818C1570.59 386.242 1571.24 383.091 1572.54 380.364C1573.86 377.621 1575.69 375.485 1578.04 373.955C1580.4 372.409 1583.16 371.636 1586.31 371.636C1588.13 371.636 1589.93 371.939 1591.7 372.545C1593.47 373.152 1595.09 374.136 1596.54 375.5C1597.99 376.848 1599.15 378.636 1600.02 380.864C1600.88 383.091 1601.31 385.833 1601.31 389.091V391.364H1574.4V386.727H1595.86C1595.86 384.758 1595.46 383 1594.68 381.455C1593.9 379.909 1592.8 378.689 1591.36 377.795C1589.93 376.902 1588.25 376.455 1586.31 376.455C1584.18 376.455 1582.33 376.985 1580.77 378.045C1579.22 379.091 1578.03 380.455 1577.2 382.136C1576.37 383.818 1575.95 385.621 1575.95 387.545V390.636C1575.95 393.273 1576.4 395.508 1577.31 397.341C1578.24 399.159 1579.52 400.545 1581.15 401.5C1582.79 402.439 1584.69 402.909 1586.86 402.909C1588.27 402.909 1589.54 402.712 1590.68 402.318C1591.83 401.909 1592.82 401.303 1593.65 400.5C1594.49 399.682 1595.13 398.667 1595.59 397.455L1600.77 398.909C1600.22 400.667 1599.3 402.212 1598.02 403.545C1596.73 404.864 1595.14 405.894 1593.24 406.636C1591.35 407.364 1589.22 407.727 1586.86 407.727ZM1609.47 407V372.091H1614.84V407H1609.47ZM1612.2 366.273C1611.15 366.273 1610.25 365.917 1609.49 365.205C1608.75 364.492 1608.38 363.636 1608.38 362.636C1608.38 361.636 1608.75 360.78 1609.49 360.068C1610.25 359.356 1611.15 359 1612.2 359C1613.24 359 1614.14 359.356 1614.88 360.068C1615.64 360.78 1616.02 361.636 1616.02 362.636C1616.02 363.636 1615.64 364.492 1614.88 365.205C1614.14 365.917 1613.24 366.273 1612.2 366.273ZM1639.84 372.091V376.636H1621.75V372.091H1639.84ZM1627.02 363.727H1632.39V397C1632.39 398.515 1632.61 399.652 1633.05 400.409C1633.5 401.152 1634.08 401.652 1634.77 401.909C1635.48 402.152 1636.23 402.273 1637.02 402.273C1637.61 402.273 1638.1 402.242 1638.48 402.182C1638.86 402.106 1639.16 402.045 1639.39 402L1640.48 406.818C1640.11 406.955 1639.61 407.091 1638.95 407.227C1638.3 407.379 1637.48 407.455 1636.48 407.455C1634.96 407.455 1633.48 407.129 1632.02 406.477C1630.58 405.826 1629.39 404.833 1628.43 403.5C1627.49 402.167 1627.02 400.485 1627.02 398.455V363.727ZM1662.17 407.727C1658.81 407.727 1655.91 406.985 1653.47 405.5C1651.04 404 1649.17 401.909 1647.85 399.227C1646.55 396.53 1645.9 393.394 1645.9 389.818C1645.9 386.242 1646.55 383.091 1647.85 380.364C1649.17 377.621 1651 375.485 1653.35 373.955C1655.72 372.409 1658.47 371.636 1661.62 371.636C1663.44 371.636 1665.24 371.939 1667.01 372.545C1668.78 373.152 1670.4 374.136 1671.85 375.5C1673.31 376.848 1674.47 378.636 1675.33 380.864C1676.19 383.091 1676.62 385.833 1676.62 389.091V391.364H1649.72V386.727H1671.17C1671.17 384.758 1670.78 383 1669.99 381.455C1669.22 379.909 1668.11 378.689 1666.67 377.795C1665.25 376.902 1663.56 376.455 1661.62 376.455C1659.49 376.455 1657.64 376.985 1656.08 378.045C1654.53 379.091 1653.34 380.455 1652.51 382.136C1651.68 383.818 1651.26 385.621 1651.26 387.545V390.636C1651.26 393.273 1651.72 395.508 1652.62 397.341C1653.55 399.159 1654.83 400.545 1656.47 401.5C1658.1 402.439 1660 402.909 1662.17 402.909C1663.58 402.909 1664.85 402.712 1665.99 402.318C1667.14 401.909 1668.13 401.303 1668.97 400.5C1669.8 399.682 1670.44 398.667 1670.9 397.455L1676.08 398.909C1675.53 400.667 1674.62 402.212 1673.33 403.545C1672.04 404.864 1670.45 405.894 1668.56 406.636C1666.66 407.364 1664.53 407.727 1662.17 407.727ZM1702.78 407V372.091H1707.97V377.545H1708.42C1709.15 375.682 1710.32 374.235 1711.94 373.205C1713.56 372.159 1715.51 371.636 1717.78 371.636C1720.09 371.636 1722 372.159 1723.53 373.205C1725.08 374.235 1726.28 375.682 1727.15 377.545H1727.51C1728.41 375.742 1729.75 374.311 1731.53 373.25C1733.32 372.174 1735.47 371.636 1737.97 371.636C1741.09 371.636 1743.64 372.614 1745.62 374.568C1747.61 376.508 1748.6 379.53 1748.6 383.636V407H1743.24V383.636C1743.24 381.061 1742.53 379.22 1741.12 378.114C1739.72 377.008 1738.06 376.455 1736.15 376.455C1733.69 376.455 1731.79 377.197 1730.44 378.682C1729.09 380.152 1728.42 382.015 1728.42 384.273V407H1722.97V383.091C1722.97 381.106 1722.32 379.508 1721.03 378.295C1719.75 377.068 1718.09 376.455 1716.06 376.455C1714.66 376.455 1713.36 376.826 1712.15 377.568C1710.95 378.311 1709.98 379.341 1709.24 380.659C1708.51 381.962 1708.15 383.47 1708.15 385.182V407H1702.78ZM1768.68 407.818C1766.47 407.818 1764.46 407.402 1762.66 406.568C1760.86 405.72 1759.42 404.5 1758.36 402.909C1757.3 401.303 1756.77 399.364 1756.77 397.091C1756.77 395.091 1757.17 393.47 1757.95 392.227C1758.74 390.97 1759.8 389.985 1761.11 389.273C1762.43 388.561 1763.89 388.03 1765.48 387.682C1767.08 387.318 1768.7 387.03 1770.32 386.818C1772.44 386.545 1774.16 386.341 1775.48 386.205C1776.81 386.053 1777.78 385.803 1778.39 385.455C1779.01 385.106 1779.32 384.5 1779.32 383.636V383.455C1779.32 381.212 1778.7 379.47 1777.48 378.227C1776.27 376.985 1774.42 376.364 1771.95 376.364C1769.39 376.364 1767.39 376.924 1765.93 378.045C1764.48 379.167 1763.45 380.364 1762.86 381.636L1757.77 379.818C1758.68 377.697 1759.89 376.045 1761.41 374.864C1762.94 373.667 1764.61 372.833 1766.41 372.364C1768.23 371.879 1770.02 371.636 1771.77 371.636C1772.89 371.636 1774.18 371.773 1775.64 372.045C1777.11 372.303 1778.52 372.841 1779.89 373.659C1781.27 374.477 1782.41 375.712 1783.32 377.364C1784.23 379.015 1784.68 381.227 1784.68 384V407H1779.32V402.273H1779.05C1778.68 403.03 1778.08 403.841 1777.23 404.705C1776.38 405.568 1775.25 406.303 1773.84 406.909C1772.43 407.515 1770.71 407.818 1768.68 407.818ZM1769.5 403C1771.62 403 1773.41 402.583 1774.86 401.75C1776.33 400.917 1777.44 399.841 1778.18 398.523C1778.94 397.205 1779.32 395.818 1779.32 394.364V389.455C1779.09 389.727 1778.59 389.977 1777.82 390.205C1777.06 390.417 1776.18 390.606 1775.18 390.773C1774.2 390.924 1773.23 391.061 1772.3 391.182C1771.37 391.288 1770.62 391.379 1770.05 391.455C1768.65 391.636 1767.35 391.932 1766.14 392.341C1764.94 392.735 1763.97 393.333 1763.23 394.136C1762.5 394.924 1762.14 396 1762.14 397.364C1762.14 399.227 1762.83 400.636 1764.2 401.591C1765.6 402.53 1767.36 403 1769.5 403ZM1794.47 407V372.091H1799.84V407H1794.47ZM1797.2 366.273C1796.15 366.273 1795.25 365.917 1794.49 365.205C1793.75 364.492 1793.38 363.636 1793.38 362.636C1793.38 361.636 1793.75 360.78 1794.49 360.068C1795.25 359.356 1796.15 359 1797.2 359C1798.24 359 1799.14 359.356 1799.88 360.068C1800.64 360.78 1801.02 361.636 1801.02 362.636C1801.02 363.636 1800.64 364.492 1799.88 365.205C1799.14 365.917 1798.24 366.273 1797.2 366.273ZM1834.39 379.909L1829.57 381.273C1829.27 380.47 1828.82 379.689 1828.23 378.932C1827.65 378.159 1826.86 377.523 1825.86 377.023C1824.86 376.523 1823.58 376.273 1822.02 376.273C1819.89 376.273 1818.11 376.765 1816.68 377.75C1815.27 378.72 1814.57 379.955 1814.57 381.455C1814.57 382.788 1815.05 383.841 1816.02 384.614C1816.99 385.386 1818.51 386.03 1820.57 386.545L1825.75 387.818C1828.87 388.576 1831.2 389.735 1832.73 391.295C1834.26 392.841 1835.02 394.833 1835.02 397.273C1835.02 399.273 1834.45 401.061 1833.3 402.636C1832.16 404.212 1830.57 405.455 1828.52 406.364C1826.48 407.273 1824.1 407.727 1821.39 407.727C1817.83 407.727 1814.88 406.955 1812.55 405.409C1810.21 403.864 1808.73 401.606 1808.11 398.636L1813.2 397.364C1813.69 399.242 1814.61 400.652 1815.95 401.591C1817.32 402.53 1819.1 403 1821.3 403C1823.8 403 1825.78 402.47 1827.25 401.409C1828.73 400.333 1829.48 399.045 1829.48 397.545C1829.48 396.333 1829.05 395.318 1828.2 394.5C1827.36 393.667 1826.05 393.045 1824.3 392.636L1818.48 391.273C1815.28 390.515 1812.93 389.341 1811.43 387.75C1809.95 386.144 1809.2 384.136 1809.2 381.727C1809.2 379.758 1809.76 378.015 1810.86 376.5C1811.98 374.985 1813.51 373.795 1815.43 372.932C1817.37 372.068 1819.57 371.636 1822.02 371.636C1825.48 371.636 1828.19 372.394 1830.16 373.909C1832.14 375.424 1833.55 377.424 1834.39 379.909Z" fill="#7C7C7C"/>
<path d="M592.267 298.493V157.348H647.954C658.613 157.348 667.71 159.255 675.245 163.068C682.826 166.836 688.593 172.188 692.544 179.126C696.541 186.018 698.54 194.127 698.54 203.454C698.54 212.827 696.518 220.891 692.475 227.645C688.432 234.353 682.574 239.499 674.901 243.083C667.274 246.666 658.039 248.458 647.196 248.458H609.911V224.475H642.371C648.068 224.475 652.801 223.694 656.568 222.131C660.336 220.569 663.139 218.226 664.976 215.102C666.86 211.977 667.802 208.095 667.802 203.454C667.802 198.768 666.86 194.817 664.976 191.6C663.139 188.384 660.313 185.949 656.5 184.295C652.732 182.595 647.977 181.745 642.233 181.745H622.109V298.493H592.267ZM668.491 234.261L703.571 298.493H670.628L636.306 234.261H668.491ZM765.615 300.561C754.726 300.561 745.353 298.355 737.496 293.944C729.685 289.488 723.666 283.193 719.439 275.061C715.212 266.882 713.099 257.211 713.099 246.046C713.099 235.157 715.212 225.6 719.439 217.376C723.666 209.152 729.616 202.742 737.289 198.148C745.008 193.553 754.059 191.256 764.443 191.256C771.427 191.256 777.928 192.382 783.947 194.633C790.012 196.838 795.296 200.169 799.798 204.626C804.347 209.083 807.885 214.688 810.412 221.442C812.939 228.15 814.202 236.007 814.202 245.012V253.076H724.815V234.881H786.566C786.566 230.654 785.647 226.91 783.809 223.648C781.971 220.385 779.421 217.835 776.159 215.998C772.943 214.114 769.198 213.172 764.925 213.172C760.469 213.172 756.517 214.206 753.072 216.273C749.672 218.295 747.007 221.029 745.077 224.475C743.147 227.875 742.159 231.665 742.113 235.846V253.145C742.113 258.382 743.078 262.908 745.008 266.722C746.984 270.535 749.763 273.476 753.347 275.543C756.931 277.611 761.181 278.645 766.097 278.645C769.359 278.645 772.346 278.185 775.057 277.266C777.767 276.347 780.088 274.969 782.017 273.131C783.947 271.293 785.417 269.042 786.428 266.377L813.582 268.169C812.204 274.693 809.378 280.39 805.105 285.261C800.878 290.085 795.41 293.853 788.702 296.563C782.04 299.228 774.344 300.561 765.615 300.561ZM921.439 222.821L894.561 224.475C894.102 222.177 893.114 220.11 891.598 218.272C890.081 216.388 888.083 214.895 885.602 213.792C883.167 212.644 880.249 212.069 876.849 212.069C872.3 212.069 868.464 213.034 865.34 214.964C862.215 216.848 860.653 219.375 860.653 222.545C860.653 225.072 861.664 227.208 863.686 228.954C865.707 230.7 869.176 232.102 874.092 233.158L893.252 237.018C903.544 239.131 911.216 242.531 916.27 247.218C921.324 251.904 923.851 258.061 923.851 265.688C923.851 272.626 921.807 278.713 917.718 283.951C913.675 289.189 908.115 293.278 901.039 296.219C894.01 299.113 885.9 300.561 876.711 300.561C862.698 300.561 851.533 297.643 843.217 291.808C834.947 285.927 830.099 277.932 828.675 267.824L857.552 266.308C858.425 270.581 860.538 273.843 863.892 276.095C867.246 278.3 871.542 279.403 876.78 279.403C881.926 279.403 886.061 278.415 889.185 276.439C892.356 274.418 893.964 271.822 894.01 268.651C893.964 265.986 892.838 263.804 890.633 262.104C888.427 260.358 885.027 259.026 880.433 258.107L862.101 254.454C851.763 252.387 844.067 248.803 839.013 243.703C834.005 238.603 831.501 232.102 831.501 224.199C831.501 217.399 833.339 211.541 837.014 206.625C840.736 201.709 845.951 197.918 852.659 195.253C859.413 192.588 867.315 191.256 876.367 191.256C889.737 191.256 900.258 194.082 907.931 199.733C915.65 205.384 920.153 213.08 921.439 222.821ZM990.582 300.561C979.693 300.561 970.32 298.355 962.463 293.944C954.652 289.488 948.633 283.193 944.406 275.061C940.179 266.882 938.066 257.211 938.066 246.046C938.066 235.157 940.179 225.6 944.406 217.376C948.633 209.152 954.583 202.742 962.256 198.148C969.975 193.553 979.026 191.256 989.41 191.256C996.394 191.256 1002.9 192.382 1008.91 194.633C1014.98 196.838 1020.26 200.169 1024.77 204.626C1029.31 209.083 1032.85 214.688 1035.38 221.442C1037.91 228.15 1039.17 236.007 1039.17 245.012V253.076H949.782V234.881H1011.53C1011.53 230.654 1010.61 226.91 1008.78 223.648C1006.94 220.385 1004.39 217.835 1001.13 215.998C997.91 214.114 994.166 213.172 989.893 213.172C985.436 213.172 981.485 214.206 978.039 216.273C974.639 218.295 971.974 221.029 970.044 224.475C968.114 227.875 967.127 231.665 967.081 235.846V253.145C967.081 258.382 968.045 262.908 969.975 266.722C971.951 270.535 974.731 273.476 978.314 275.543C981.898 277.611 986.148 278.645 991.064 278.645C994.326 278.645 997.313 278.185 1000.02 277.266C1002.73 276.347 1005.05 274.969 1006.98 273.131C1008.91 271.293 1010.38 269.042 1011.4 266.377L1038.55 268.169C1037.17 274.693 1034.35 280.39 1030.07 285.261C1025.85 290.085 1020.38 293.853 1013.67 296.563C1007.01 299.228 999.311 300.561 990.582 300.561ZM1058.33 298.493V192.634H1086.79V211.104H1087.89C1089.82 204.534 1093.06 199.572 1097.61 196.218C1102.16 192.818 1107.4 191.118 1113.33 191.118C1114.8 191.118 1116.38 191.21 1118.08 191.394C1119.78 191.578 1121.27 191.83 1122.56 192.152V218.203C1121.18 217.79 1119.28 217.422 1116.84 217.1C1114.41 216.779 1112.18 216.618 1110.16 216.618C1105.84 216.618 1101.98 217.56 1098.58 219.444C1095.22 221.281 1092.56 223.854 1090.58 227.162C1088.65 230.471 1087.69 234.284 1087.69 238.603V298.493H1058.33ZM1239.65 192.634L1202.64 298.493H1169.56L1132.55 192.634H1163.57L1185.55 268.376H1186.65L1208.57 192.634H1239.65ZM1282.02 300.492C1275.27 300.492 1269.25 299.32 1263.96 296.977C1258.68 294.588 1254.5 291.073 1251.42 286.432C1248.39 281.746 1246.87 275.911 1246.87 268.927C1246.87 263.046 1247.95 258.107 1250.11 254.11C1252.27 250.112 1255.21 246.896 1258.93 244.461C1262.65 242.026 1266.88 240.188 1271.61 238.947C1276.39 237.707 1281.4 236.834 1286.64 236.329C1292.8 235.685 1297.76 235.088 1301.52 234.537C1305.29 233.939 1308.03 233.066 1309.73 231.918C1311.43 230.769 1312.28 229.069 1312.28 226.818V226.404C1312.28 222.039 1310.9 218.662 1308.14 216.273C1305.43 213.884 1301.57 212.69 1296.56 212.69C1291.28 212.69 1287.07 213.861 1283.95 216.204C1280.83 218.502 1278.76 221.396 1277.75 224.888L1250.59 222.683C1251.97 216.25 1254.68 210.691 1258.73 206.004C1262.77 201.272 1267.98 197.642 1274.37 195.115C1280.8 192.542 1288.25 191.256 1296.7 191.256C1302.58 191.256 1308.21 191.945 1313.59 193.323C1319.01 194.702 1323.81 196.838 1327.99 199.733C1332.22 202.627 1335.55 206.349 1337.98 210.898C1340.42 215.4 1341.64 220.799 1341.64 227.094V298.493H1313.79V283.813H1312.97C1311.27 287.121 1308.99 290.039 1306.14 292.566C1303.29 295.047 1299.87 297 1295.87 298.424C1291.88 299.802 1287.26 300.492 1282.02 300.492ZM1290.43 280.23C1294.75 280.23 1298.56 279.38 1301.87 277.68C1305.18 275.934 1307.77 273.591 1309.66 270.65C1311.54 267.709 1312.48 264.378 1312.48 260.657V249.423C1311.56 250.02 1310.3 250.572 1308.69 251.077C1307.13 251.537 1305.36 251.973 1303.39 252.387C1301.41 252.754 1299.43 253.099 1297.46 253.42C1295.48 253.696 1293.69 253.949 1292.08 254.178C1288.64 254.684 1285.63 255.488 1283.05 256.591C1280.48 257.693 1278.48 259.187 1277.06 261.07C1275.63 262.908 1274.92 265.205 1274.92 267.962C1274.92 271.959 1276.37 275.015 1279.26 277.128C1282.2 279.196 1285.93 280.23 1290.43 280.23ZM1409.88 298.493V157.348H1503.34V181.952H1439.72V215.584H1497.13V240.188H1439.72V298.493H1409.88ZM1551.72 300.492C1544.96 300.492 1538.94 299.32 1533.66 296.977C1528.38 294.588 1524.19 291.073 1521.12 286.432C1518.08 281.746 1516.57 275.911 1516.57 268.927C1516.57 263.046 1517.65 258.107 1519.81 254.11C1521.97 250.112 1524.91 246.896 1528.63 244.461C1532.35 242.026 1536.58 240.188 1541.31 238.947C1546.09 237.707 1551.1 236.834 1556.33 236.329C1562.49 235.685 1567.45 235.088 1571.22 234.537C1574.99 233.939 1577.72 233.066 1579.42 231.918C1581.12 230.769 1581.97 229.069 1581.97 226.818V226.404C1581.97 222.039 1580.59 218.662 1577.84 216.273C1575.13 213.884 1571.27 212.69 1566.26 212.69C1560.97 212.69 1556.77 213.861 1553.65 216.204C1550.52 218.502 1548.45 221.396 1547.44 224.888L1520.29 222.683C1521.67 216.25 1524.38 210.691 1528.42 206.004C1532.46 201.272 1537.68 197.642 1544.07 195.115C1550.5 192.542 1557.94 191.256 1566.4 191.256C1572.28 191.256 1577.9 191.945 1583.28 193.323C1588.7 194.702 1593.5 196.838 1597.68 199.733C1601.91 202.627 1605.24 206.349 1607.68 210.898C1610.11 215.4 1611.33 220.799 1611.33 227.094V298.493H1583.49V283.813H1582.66C1580.96 287.121 1578.69 290.039 1575.84 292.566C1572.99 295.047 1569.57 297 1565.57 298.424C1561.57 299.802 1556.95 300.492 1551.72 300.492ZM1560.12 280.23C1564.44 280.23 1568.26 279.38 1571.56 277.68C1574.87 275.934 1577.47 273.591 1579.35 270.65C1581.24 267.709 1582.18 264.378 1582.18 260.657V249.423C1581.26 250.02 1580 250.572 1578.39 251.077C1576.83 251.537 1575.06 251.973 1573.08 252.387C1571.11 252.754 1569.13 253.099 1567.15 253.42C1565.18 253.696 1563.39 253.949 1561.78 254.178C1558.33 254.684 1555.32 255.488 1552.75 256.591C1550.18 257.693 1548.18 259.187 1546.75 261.07C1545.33 262.908 1544.62 265.205 1544.62 267.962C1544.62 271.959 1546.06 275.015 1548.96 277.128C1551.9 279.196 1555.62 280.23 1560.12 280.23ZM1556.95 178.988L1571.56 147.631H1598.72L1577.7 178.988H1556.95ZM1681.94 300.561C1671.09 300.561 1661.77 298.263 1653.96 293.669C1646.19 289.028 1640.22 282.596 1636.04 274.372C1631.9 266.147 1629.84 256.683 1629.84 245.977C1629.84 235.134 1631.93 225.623 1636.11 217.445C1640.33 209.221 1646.33 202.811 1654.09 198.217C1661.86 193.576 1671.09 191.256 1681.8 191.256C1691.03 191.256 1699.12 192.933 1706.06 196.287C1713 199.641 1718.49 204.35 1722.53 210.415C1726.57 216.48 1728.8 223.602 1729.22 231.78H1701.51C1700.73 226.496 1698.66 222.246 1695.31 219.03C1692 215.768 1687.66 214.137 1682.28 214.137C1677.73 214.137 1673.76 215.377 1670.36 217.858C1667.01 220.294 1664.39 223.854 1662.5 228.541C1660.62 233.227 1659.68 238.902 1659.68 245.564C1659.68 252.318 1660.6 258.061 1662.43 262.793C1664.32 267.526 1666.96 271.132 1670.36 273.613C1673.76 276.095 1677.73 277.335 1682.28 277.335C1685.64 277.335 1688.65 276.646 1691.31 275.268C1694.02 273.889 1696.25 271.891 1698 269.272C1699.79 266.607 1700.96 263.414 1701.51 259.692H1729.22C1728.76 267.778 1726.55 274.9 1722.6 281.057C1718.69 287.167 1713.3 291.946 1706.4 295.392C1699.51 298.838 1691.36 300.561 1681.94 300.561ZM1748.01 298.493V192.634H1777.37V298.493H1748.01ZM1762.76 178.988C1758.4 178.988 1754.65 177.541 1751.53 174.647C1748.45 171.706 1746.91 168.191 1746.91 164.102C1746.91 160.059 1748.45 156.59 1751.53 153.695C1754.65 150.755 1758.4 149.285 1762.76 149.285C1767.13 149.285 1770.85 150.755 1773.93 153.695C1777.05 156.59 1778.61 160.059 1778.61 164.102C1778.61 168.191 1777.05 171.706 1773.93 174.647C1770.85 177.541 1767.13 178.988 1762.76 178.988ZM1830.25 157.348V298.493H1800.89V157.348H1830.25Z" fill="#7C7C7C"/>
<path fill-rule="evenodd" clip-rule="evenodd" d="M64 0C28.6538 0 0 28.6538 0 64V448C0 483.346 28.6538 512 64 512H448C483.346 512 512 483.346 512 448V64C512 28.6538 483.346 0 448 0H64ZM117.605 80.2854V431H212.818V315.237H245.771L307.347 431H410.78L339.557 300.238C357.751 291.508 372.017 279.097 382.353 263.006C393.541 245.767 399.135 224.59 399.135 199.474C399.135 174.586 393.712 153.237 382.867 135.427C372.021 117.617 356.837 103.975 337.315 94.4989C317.793 85.0233 295.017 80.2854 268.987 80.2854H117.605ZM212.818 241.258H246.383C257.571 241.258 267.104 239.888 274.981 237.148C282.973 234.294 289.08 229.784 293.304 223.619C297.643 217.455 299.812 209.406 299.812 199.474C299.812 189.427 297.643 181.264 293.304 174.985C289.08 168.592 282.973 163.911 274.981 160.943C267.104 157.86 257.571 156.319 246.383 156.319H212.818V241.258Z" fill="url(#paint0_linear_32_42)"/>
<defs>
<linearGradient id="paint0_linear_32_42" x1="256" y1="0" x2="256" y2="512" gradientUnits="userSpaceOnUse">
<stop stop-color="#FF6900"/>
<stop offset="1" stop-color="#FFC400"/>
</linearGradient>
</defs>
</svg>
